<svg xmlns="http://www.w3.org/2000/svg" version="1.0" width="107" height="50" preserveAspectRatio="xMidYMid meet"><rect id="backgroundrect" width="100%" height="100%" x="0" y="0" fill="none" stroke="none"/>
<metadata>
Created by potrace 1.13, written by Peter Selinger 2001-2015
</metadata>

<g class="currentLayer"><title>Layer 1</title><g transform="translate(0,332) scale(0.10000000149011612,-0.10000000149011612) " fill="#919191" stroke="none" id="svg_1" class="selected" fill-opacity="1">
<path d="M580.515117619809,3295.394567036288 c-11.92991563481223,-3.811528588373596 -23.700765727826962,-13.686852658250647 -46.60620374666644,-38.98154238109361 c-13.202439969192202,-14.379857856136754 -25.76861777119441,-28.932967011745028 -27.836469814561863,-32.22474170170404 c-2.0678520433674534,-3.2917746899590155 -4.931031795722386,-7.4498058772756695 -6.680752755494846,-9.355570171462466 c-1.5906554179749652,-1.9057642941867994 -4.771966253924891,-6.063795481503449 -6.9988838390898405,-9.009067572519411 c-2.226917585164949,-3.1185233904874905 -4.6129007121273995,-5.717292882560396 -5.408228421114876,-5.717292882560396 c-0.795327708987482,0 1.431589876177469,8.835816273047884 4.771966253924891,19.577396840282567 c8.43047371526731,27.200454017029752 12.248046718407217,47.12435345625538 9.543932507849782,50.58937944568592 c-2.704114210557438,3.6382772889020685 -6.839818297292347,3.2917746899590155 -10.33926021683726,-0.6930051978861097 c-1.431589876177469,-1.9057642941867994 -5.408228421114876,-14.033355257193698 -8.7486047988623,-26.853951418086698 c-9.225801424254794,-36.036270290077645 -21.314782600864522,-74.6713100722282 -31.97217390129678,-102.39151798767253 c-2.5450486687599425,-6.583549379918031 -5.090097337519883,-15.072863054022859 -5.7263595047098725,-18.53788904345341 c-0.795327708987482,-5.890544182031923 -0.4771966253924913,-6.583549379918031 2.3859831269624463,-6.583549379918031 c1.9087865015699568,0 4.931031795722386,0.8662564973576368 6.9988838390898405,1.7325129947152724 c3.817573003139914,1.9057642941867994 10.816456842229751,12.300842262478428 10.816456842229751,15.939119551380491 c0,4.158031187316653 26.404879938384404,53.014897638287316 36.903205697019175,68.08776069231016 c24.018896811421953,34.65025989430543 66.80752755494848,77.09682826482955 77.62398439717823,77.09682826482955 c3.4994419195449202,0 3.4994419195449202,-0.3465025989430559 2.3859831269624463,-11.607837064592317 c-0.4771966253924913,-6.583549379918031 -2.0678520433674534,-16.458873449795078 -3.4994419195449202,-22.176166332355468 c-3.4994419195449202,-15.592616952437439 -17.179078514129614,-55.267164531417144 -24.49609343681444,-71.37953538226921 c-8.112342631672316,-17.671632546095772 -7.3170149226848356,-19.92389943922562 4.931031795722386,-16.11237085085202 c4.453835170329898,1.386010395772218 6.203556130102359,3.2917746899590155 8.43047371526731,9.182318871990933 c5.567293962912375,14.206606556665227 15.111226470762157,34.996762493248475 18.13347176491458,39.154793680565135 c7.794211548077321,11.088083166177734 16.86094743053462,20.79015593658325 29.90432185792931,32.22474170170404 c27.04114210557438,23.562176728127696 39.44825436577909,31.704987803289463 36.585074613424176,23.90867932707074 c-0.6362621671899852,-1.7325129947152724 -2.8631797523549363,-8.489313674104832 -5.090097337519883,-14.899611754551335 c-4.294769628532404,-12.993847460364531 -21.632913684459503,-50.416128146214405 -25.927683312991906,-55.78691842983172 c-3.817573003139914,-5.024287684674287 -15.906554179749639,-26.68070011861518 -15.906554179749639,-28.759715712273508 c0,-0.8662564973576368 -2.8631797523549363,-7.623057176747194 -6.203556130102359,-15.072863054022859 c-3.340376377747424,-7.276554577804137 -6.680752755494846,-15.939119551380491 -7.3170149226848356,-18.884391642396455 c-0.4771966253924913,-3.1185233904874905 -1.7497209597724601,-6.237046780974981 -2.704114210557438,-6.756800679389557 c-0.9543932507849786,-0.6930051978861097 -11.770850093014731,-2.9452720910159615 -24.17796235321945,-5.197538984145814 c-21.632913684459503,-3.9847798878451233 -30.540584025119305,-5.3707902836173425 -62.989954551808545,-9.355570171462466 c-13.997767678179681,-1.559261695243745 -58.53611938147868,-9.009067572519411 -69.03444514011342,-11.434585765120795 l-4.6129007121273995,-1.039507796829164 l0.9543932507849786,8.316062374633304 c0.4771966253924913,4.677785085731233 4.294769628532404,17.844883845567303 8.43047371526731,29.279469610688093 c16.86094743053462,46.95110215678385 18.610668390307072,52.321892440401186 19.40599609929456,58.55893922137617 c0.6362621671899852,5.890544182031923 0.4771966253924913,6.410298080446502 -3.1813108359499287,6.410298080446502 c-2.3859831269624463,0 -5.090097337519883,-1.559261695243745 -6.3626216718998565,-3.811528588373596 l-2.226917585164949,-3.6382772889020685 l-4.771966253924891,3.6382772889020685 c-6.839818297292347,5.3707902836173425 -14.315898761774681,5.197538984145814 -25.29142114580192,-0.3465025989430559 c-10.816456842229751,-5.3707902836173425 -25.76861777119441,-21.309909834997843 -31.97217390129678,-33.957254696419334 c-5.567293962912375,-11.607837064592317 -8.43047371526731,-14.726360455079806 -18.76973393210458,-19.7506481397541 c-12.72524334379971,-6.237046780974981 -15.588423096154642,-5.890544182031923 -20.360389350079533,2.079015593658326 c-6.839818297292347,11.261334465649266 -9.225801424254794,15.765868251908973 -9.225801424254794,17.671632546095772 c0,4.3312824867881785 11.770850093014731,15.419365652965917 22.269175851649496,20.61690463711173 c11.611784551217236,5.890544182031923 11.770850093014731,5.890544182031923 29.10899414894184,2.598769492072907 c11.92991563481223,-2.2522668931298533 15.270292012559652,8.835816273047884 4.294769628532404,14.899611754551335 c-7.794211548077321,4.3312824867881785 -8.7486047988623,4.3312824867881785 -20.996651517269527,-0.17325129947152856 c-11.770850093014731,-4.158031187316653 -18.76973393210458,-7.969559775690246 -33.56282931927174,-18.191386444510346 c-12.407112260204718,-8.835816273047884 -17.02001297233211,-15.765868251908973 -17.02001297233211,-26.160946220200593 c0,-7.7963084762187185 0.9543932507849786,-9.182318871990933 10.816456842229751,-18.191386444510346 c6.044490588304862,-5.544041583088867 5.7263595047098725,-7.103303278332615 -2.8631797523549363,-11.781088364063844 c-7.635146006279826,-4.3312824867881785 -16.86094743053462,-11.088083166177734 -22.58730693524449,-16.63212474926661 c-3.1813108359499287,-2.9452720910159615 -4.453835170329898,-5.890544182031923 -4.453835170329898,-10.221826668820102 c0,-8.316062374633304 4.453835170329898,-11.261334465649266 17.02001297233211,-11.261334465649266 c23.700765727826962,0 41.83423749274155,15.939119551380491 38.65292665679163,34.30375729536237 c-1.2725243343799721,7.969559775690246 -1.1134587925824746,8.316062374633304 8.271408173469814,12.820596160893004 l5.7263595047098725,2.9452720910159615 l1.1134587925824746,-12.127590963006897 c1.431589876177469,-15.939119551380491 5.249162879317382,-21.309909834997843 13.838702136382185,-20.097150738697145 c3.340376377747424,0.5197538984145823 13.043374427394701,5.197538984145814 21.314782600864522,10.568329267763158 c14.47496430357217,9.182318871990933 18.13347176491458,10.914831866706207 18.13347176491458,8.835816273047884 c0,-0.5197538984145823 -1.1134587925824746,-6.063795481503449 -2.5450486687599425,-12.300842262478428 c-1.9087865015699568,-8.316062374633304 -3.6585074613424178,-11.781088364063844 -6.044490588304862,-12.993847460364531 c-1.9087865015699568,-0.8662564973576368 -12.248046718407217,-2.2522668931298533 -23.22356910243447,-3.2917746899590155 c-32.44937052668926,-2.9452720910159615 -85.41819594525553,-12.300842262478428 -104.34699541915761,-18.36463774398187 c-14.634029845369671,-4.677785085731233 -18.92879947390207,-5.197538984145814 -17.656275139522098,-1.9057642941867994 c0.4771966253924913,1.039507796829164 5.7263595047098725,13.860103957722169 11.45271900941974,28.06671051438739 c22.269175851649496,54.400908034059505 24.97329006220693,61.85071391133518 24.97329006220693,68.08776069231016 c0,14.899611754551335 -13.838702136382185,14.033355257193698 -20.996651517269527,-1.386010395772218 c-3.340376377747424,-7.103303278332615 -24.018896811421953,-27.546956615972817 -41.83423749274155,-41.40706057369498 c-5.7263595047098725,-4.3312824867881785 -15.111226470762157,-11.781088364063844 -20.996651517269527,-16.458873449795078 c-8.907670340659797,-7.103303278332615 -12.248046718407217,-8.662564973576357 -19.087865015699563,-9.355570171462466 c-7.794211548077321,-0.6930051978861097 -8.589539257064807,-0.3465025989430559 -11.293653467622246,3.811528588373596 c-6.203556130102359,10.568329267763158 -4.135704086734907,33.784003396947796 4.931031795722386,53.88115413564493 c10.816456842229751,23.90867932707074 17.97440622311709,37.07577808690682 25.76861777119441,47.99060995361302 c4.294769628532404,5.890544182031923 13.043374427394701,19.40414554081104 19.40599609929456,29.625972209631133 c6.3626216718998565,10.395077968291629 13.838702136382185,21.65641243394089 16.70188188873712,25.12143842337143 c9.862063591444771,11.95433966353537 13.202439969192202,23.562176728127696 8.112342631672316,28.06671051438739 c-3.6585074613424178,3.2917746899590155 -16.542816346939627,-2.2522668931298533 -38.971057740386605,-16.805376048738133 c-31.017780650511796,-20.097150738697145 -41.993303034539046,-29.97247480857419 -38.971057740386605,-35.170013792720006 c1.9087865015699568,-3.4650259894305426 5.8854250465073665,-1.559261695243745 13.997767678179681,6.756800679389557 c6.3626216718998565,6.583549379918031 11.134587925824748,9.528821470933993 20.201323808282044,12.993847460364531 c6.521687213697351,2.2522668931298533 12.248046718407217,3.9847798878451233 12.884308885597205,3.4650259894305426 c0.795327708987482,-0.3465025989430559 -0.15906554179749777,-2.425518192601381 -2.0678520433674534,-4.677785085731233 c-1.7497209597724601,-2.079015593658326 -7.9532770898748195,-10.741580567234683 -13.52057105278719,-19.40414554081104 c-5.7263595047098725,-8.489313674104832 -10.816456842229751,-15.939119551380491 -11.45271900941974,-16.458873449795078 c-0.6362621671899852,-0.5197538984145823 -6.203556130102359,-8.662564973576357 -12.248046718407217,-18.191386444510346 c-8.43047371526731,-13.167098759836062 -12.72524334379971,-22.002915032883948 -17.815340681319594,-37.24902938637833 c-11.45271900941974,-33.957254696419334 -12.566177802002217,-53.53465153670189 -4.294769628532404,-69.64702238755389 c7.1579493808873424,-13.860103957722169 19.724127182889543,-15.072863054022859 38.65292665679163,-3.811528588373596 c9.06673588245729,5.544041583088867 45.17461387048898,31.878239102760983 57.263595047098725,41.92681447210955 c2.704114210557438,2.2522668931298533 5.090097337519883,3.811528588373596 5.090097337519883,3.2917746899590155 c0,-1.559261695243745 -6.203556130102359,-18.884391642396455 -7.794211548077321,-22.002915032883948 c-0.6362621671899852,-1.386010395772218 -2.5450486687599425,-7.276554577804137 -3.9766385449374115,-12.993847460364531 c-1.5906554179749652,-5.717292882560396 -4.135704086734907,-13.167098759836062 -5.7263595047098725,-16.458873449795078 c-1.7497209597724601,-3.2917746899590155 -4.135704086734907,-9.009067572519411 -5.408228421114876,-12.64734486142148 c-1.2725243343799721,-3.4650259894305426 -3.340376377747424,-6.756800679389557 -4.453835170329898,-7.103303278332615 c-1.1134587925824746,-0.3465025989430559 -11.770850093014731,-3.9847798878451233 -23.541700186029463,-7.969559775690246 c-11.770850093014731,-3.811528588373596 -27.518338730966867,-9.009067572519411 -34.83535365365172,-11.434585765120795 c-24.97329006220693,-7.969559775690246 -80.16903306593818,-32.05149040223251 -106.73297854612005,-46.43134825836927 c-28.15460089815686,-15.072863054022859 -28.94992860714434,-15.765868251908973 -48.83312133183139,-29.97247480857419 c-16.22468526334463,-11.781088364063844 -18.610668390307072,-17.325129947152714 -18.610668390307072,-41.23380927422346 c0,-26.334197519672124 8.112342631672316,-43.65932746682483 28.631797523549363,-61.85071391133518 c13.997767678179681,-12.300842262478428 23.064503560636975,-17.498381246624238 36.585074613424176,-21.13665853552632 c10.498325758634763,-2.772020791544434 12.407112260204718,-2.772020791544434 25.609552229396918,-0.3465025989430559 c7.9532770898748195,1.559261695243745 16.542816346939627,3.4650259894305426 18.92879947390207,4.504533786259706 c16.542816346939627,6.930051978861084 54.24134975294627,50.06962554727135 78.73744318976068,90.26392702466559 c15.906554179749639,25.81444362125754 55.51387408732625,104.81703618027387 55.51387408732625,110.36107776336279 c0,4.851036385202762 7.9532770898748195,7.969559775690246 36.74414015522167,14.033355257193698 c37.698533406006646,8.14281107516177 100.84755349961273,18.53788904345341 116.91317322115984,19.230894241339506 c1.1134587925824746,0 2.3859831269624463,-7.4498058772756695 3.4994419195449202,-19.230894241339506 c2.226917585164949,-23.90867932707074 4.931031795722386,-30.492228706988776 14.634029845369671,-35.86301899060613 c5.567293962912375,-3.1185233904874905 8.7486047988623,-3.811528588373596 14.15683321997718,-3.1185233904874905 c7.476080464482328,1.039507796829164 25.609552229396918,9.355570171462466 25.609552229396918,11.607837064592317 c0,0.6930051978861097 3.1813108359499287,3.4650259894305426 6.9988838390898405,5.890544182031923 c8.907670340659797,5.717292882560396 27.836469814561863,32.744495600118626 29.10899414894184,41.580311873166515 c0.4771966253924913,3.2917746899590155 0.3181310835949938,6.063795481503449 -0.4771966253924913,6.063795481503449 c-0.795327708987482,0 -5.249162879317382,-4.158031187316653 -9.702998049647281,-9.182318871990933 c-12.566177802002217,-14.033355257193698 -37.698533406006646,-28.759715712273508 -49.15125241542639,-28.932967011745028 c-4.931031795722386,0 -17.815340681319594,6.756800679389557 -20.996651517269527,10.914831866706207 c-2.8631797523549363,3.811528588373596 -3.817573003139914,15.765868251908973 -1.5906554179749652,18.884391642396455 c1.5906554179749652,2.2522668931298533 13.838702136382185,4.677785085731233 60.12677479945362,11.607837064592317 c50.741907833401356,7.623057176747194 86.84978582143302,12.300842262478428 95.75745616209285,12.300842262478428 c2.3859831269624463,0 2.704114210557438,-1.2127590963006902 1.7497209597724601,-7.969559775690246 c-0.6362621671899852,-5.890544182031923 -0.3181310835949938,-8.316062374633304 1.2725243343799721,-9.528821470933993 c3.6585074613424178,-2.425518192601381 3.9766385449374115,-2.079015593658326 8.271408173469814,8.835816273047884 c3.022245294152431,7.4498058772756695 5.090097337519883,10.568329267763158 7.794211548077321,11.088083166177734 c2.0678520433674534,0.5197538984145823 15.906554179749639,2.079015593658326 30.6996495669168,3.6382772889020685 c26.404879938384404,2.598769492072907 96.39371832928285,11.261334465649266 120.09448405710972,14.726360455079806 c6.521687213697351,1.039507796829164 15.588423096154642,1.7325129947152724 20.04225826648455,1.7325129947152724 c9.06673588245729,0 107.36924071331006,9.875324069877049 113.25466575981744,11.261334465649266 c7.9532770898748195,2.079015593658326 9.862063591444771,-0.17325129947152856 9.862063591444771,-11.261334465649266 c0,-5.544041583088867 0.795327708987482,-10.741580567234683 1.7497209597724601,-11.434585765120795 c0.9543932507849786,-0.5197538984145823 2.5450486687599425,-3.2917746899590155 3.6585074613424178,-5.890544182031923 c0.9543932507849786,-2.598769492072907 4.931031795722386,-7.623057176747194 8.7486047988623,-11.088083166177734 c12.088981176609725,-10.914831866706207 25.927683312991906,-8.14281107516177 39.28918882398161,8.316062374633304 c7.476080464482328,9.009067572519411 13.361505510989696,21.13665853552632 13.361505510989696,27.200454017029752 c0,4.851036385202762 -2.0678520433674534,4.158031187316653 -8.112342631672316,-2.9452720910159615 c-19.087865015699563,-22.002915032883948 -54.08228421114877,-20.963407236054774 -52.01443216778131,1.386010395772218 c0.6362621671899852,7.7963084762187185 3.817573003139914,8.489313674104832 57.89985721428868,12.820596160893004 l12.884308885597205,1.2127590963006902 l0.9543932507849786,-6.756800679389557 c3.340376377747424,-21.309909834997843 4.453835170329898,-25.81444362125754 7.794211548077321,-29.625972209631133 c7.635146006279826,-9.009067572519411 22.110110309851997,-11.781088364063844 32.44937052668926,-6.410298080446502 c5.249162879317382,2.772020791544434 10.33926021683726,8.14281107516177 18.13347176491458,19.7506481397541 c2.226917585164949,3.1185233904874905 5.567293962912375,7.969559775690246 7.635146006279826,10.568329267763158 c5.567293962912375,7.4498058772756695 12.088981176609725,24.081930626542267 10.180194675039766,26.160946220200593 c-1.7497209597724601,1.9057642941867994 -4.135704086734907,-0.3465025989430559 -15.429357554357152,-14.899611754551335 c-10.65739130043226,-13.513601358779113 -13.679636594584695,-16.28562215032354 -23.064503560636975,-20.097150738697145 c-7.3170149226848356,-2.9452720910159615 -10.180194675039766,-3.2917746899590155 -15.747488637952136,-1.9057642941867994 c-3.6585074613424178,0.8662564973576368 -7.1579493808873424,1.9057642941867994 -7.476080464482328,2.425518192601381 c-0.4771966253924913,0.5197538984145823 -1.2725243343799721,5.024287684674287 -1.7497209597724601,10.221826668820102 c-0.6362621671899852,6.756800679389557 -0.3181310835949938,9.875324069877049 1.431589876177469,11.261334465649266 c1.2725243343799721,1.2127590963006902 8.7486047988623,2.2522668931298533 17.179078514129614,2.598769492072907 c12.566177802002217,0.5197538984145823 15.111226470762157,1.039507796829164 15.588423096154642,3.4650259894305426 c0.4771966253924913,2.425518192601381 -1.431589876177469,2.9452720910159615 -12.72524334379971,3.4650259894305426 c-7.3170149226848356,0.3465025989430559 -14.793095387167162,0 -16.70188188873712,-0.6930051978861097 c-4.135704086734907,-1.386010395772218 -4.453835170329898,-0.3465025989430559 -1.9087865015699568,6.756800679389557 c0.9543932507849786,2.598769492072907 3.4994419195449202,12.474093561949962 5.567293962912375,22.002915032883948 c2.226917585164949,9.355570171462466 6.839818297292347,23.562176728127696 10.33926021683726,31.531736503817946 c3.340376377747424,7.969559775690246 5.7263595047098725,15.592616952437439 5.249162879317382,17.151878647681187 c-1.1134587925824746,3.1185233904874905 -1.431589876177469,3.1185233904874905 -5.567293962912375,0.6930051978861097 c-2.704114210557438,-1.559261695243745 -4.453835170329898,-0.8662564973576368 -9.702998049647281,2.9452720910159615 c-4.771966253924891,3.6382772889020685 -8.112342631672316,4.851036385202762 -13.838702136382185,4.677785085731233 c-7.3170149226848356,-0.17325129947152856 -18.292537306712088,-4.3312824867881785 -21.632913684459503,-8.316062374633304 c-0.795327708987482,-1.039507796829164 -5.7263595047098725,-5.717292882560396 -10.816456842229751,-10.395077968291629 c-14.793095387167162,-13.513601358779113 -24.33702789501694,-37.76878328479291 -23.064503560636975,-59.078693119790735 c0.6362621671899852,-12.474093561949962 0.4771966253924913,-12.820596160893004 -11.45271900941974,-12.820596160893004 l-7.794211548077321,0 l1.7497209597724601,5.717292882560396 c0.9543932507849786,2.9452720910159615 2.5450486687599425,6.756800679389557 3.6585074613424178,8.14281107516177 c0.9543932507849786,1.386010395772218 3.1813108359499287,6.063795481503449 4.6129007121273995,10.221826668820102 c1.5906554179749652,4.3312824867881785 5.408228421114876,12.820596160893004 8.7486047988623,19.057642941867986 c12.884308885597205,24.428433225485325 18.292537306712088,48.33711255255607 12.088981176609725,53.88115413564493 c-7.3170149226848356,6.583549379918031 -31.654042817701793,-14.206606556665227 -61.24023359203612,-52.321892440401186 c-2.8631797523549363,-3.6382772889020685 -5.567293962912375,-6.583549379918031 -6.3626216718998565,-6.583549379918031 c-0.6362621671899852,0 1.2725243343799721,5.197538984145814 4.135704086734907,11.434585765120795 c6.9988838390898405,14.726360455079806 7.3170149226848356,24.255181926013798 1.1134587925824746,26.853951418086698 c-5.090097337519883,2.079015593658326 -5.249162879317382,1.9057642941867994 -15.588423096154642,-16.11237085085202 c-9.06673588245729,-15.765868251908973 -48.3559247064389,-59.251944419262266 -51.06003891699635,-56.47992362771783 c-0.3181310835949938,0.5197538984145823 3.1813108359499287,9.009067572519411 8.112342631672316,18.71114034292493 c4.771966253924891,9.875324069877049 8.7486047988623,18.884391642396455 8.7486047988623,19.92389943922562 c0,1.039507796829164 0.6362621671899852,2.598769492072907 1.431589876177469,3.6382772889020685 c2.8631797523549363,3.2917746899590155 10.021129133242273,26.334197519672124 9.38486696605229,30.318977407517252 c-0.3181310835949938,3.4650259894305426 -1.5906554179749652,4.3312824867881785 -6.521687213697351,4.677785085731233 c-5.567293962912375,0.5197538984145823 -6.044490588304862,0.17325129947152856 -8.271408173469814,-6.063795481503449 c-5.090097337519883,-13.860103957722169 -15.588423096154642,-36.90252678743528 -20.201323808282044,-44.17908136523942 c-5.408228421114876,-8.489313674104832 -12.407112260204718,-25.467941022314488 -12.407112260204718,-29.97247480857419 c0,-6.583549379918031 2.704114210557438,-11.261334465649266 6.680752755494846,-11.261334465649266 c8.112342631672316,0 0.795327708987482,-1.559261695243745 -14.634029845369671,-3.2917746899590155 c-39.28918882398161,-4.158031187316653 -38.65292665679163,-4.158031187316653 -37.38040232241165,-0.6930051978861097 c0.795327708987482,1.7325129947152724 3.340376377747424,9.528821470933993 5.7263595047098725,17.498381246624238 c5.8854250465073665,19.230894241339506 11.92991563481223,30.145726108045718 24.814224520409436,44.69883526365399 c12.248046718407217,14.033355257193698 18.292537306712088,16.805376048738133 31.494977275904272,15.246114353494388 c7.794211548077321,-1.039507796829164 7.9532770898748195,-0.8662564973576368 10.021129133242273,4.3312824867881785 c1.9087865015699568,4.677785085731233 1.9087865015699568,6.063795481503449 -0.3181310835949938,9.528821470933993 c-5.090097337519883,8.489313674104832 -17.4972095977246,7.7963084762187185 -28.790863065346844,-1.7325129947152724 c-8.43047371526731,-6.930051978861084 -13.52057105278719,-7.7963084762187185 -13.52057105278719,-1.9057642941867994 c0,5.544041583088867 -8.112342631672316,9.182318871990933 -13.997767678179681,6.583549379918031 c-6.9988838390898405,-3.2917746899590155 -14.634029845369671,-11.95433966353537 -15.747488637952136,-17.671632546095772 c-0.9543932507849786,-5.3707902836173425 -0.795327708987482,-5.3707902836173425 4.294769628532404,-4.158031187316653 c6.044490588304862,1.386010395772218 6.203556130102359,2.9452720910159615 -3.340376377747424,-25.12143842337143 c-5.249162879317382,-15.592616952437439 -7.3170149226848356,-19.230894241339506 -13.679636594584695,-25.641192321786008 c-7.635146006279826,-7.7963084762187185 -21.951044768054505,-17.671632546095772 -25.45048668759942,-17.671632546095772 c-3.022245294152431,0 -2.5450486687599425,4.158031187316653 1.9087865015699568,14.206606556665227 c2.226917585164949,5.024287684674287 6.521687213697351,16.63212474926661 9.702998049647281,25.641192321786008 c3.1813108359499287,9.009067572519411 6.9988838390898405,18.36463774398187 8.589539257064807,20.79015593658325 c4.453835170329898,6.930051978861084 5.408228421114876,12.820596160893004 2.3859831269624463,15.592616952437439 c-2.0678520433674534,1.9057642941867994 -3.1813108359499287,1.9057642941867994 -6.3626216718998565,0 c-3.1813108359499287,-1.9057642941867994 -4.294769628532404,-1.7325129947152724 -8.112342631672316,1.559261695243745 c-5.8854250465073665,5.024287684674287 -11.134587925824748,4.504533786259706 -22.90543801883948,-1.9057642941867994 c-12.407112260204718,-6.756800679389557 -20.201323808282044,-15.246114353494388 -31.654042817701793,-34.65025989430543 c-5.249162879317382,-8.662564973576357 -11.770850093014731,-17.151878647681187 -15.429357554357152,-20.097150738697145 c-5.8854250465073665,-4.677785085731233 -20.201323808282044,-12.474093561949962 -22.90543801883948,-12.474093561949962 c-0.6362621671899852,0 0.795327708987482,4.158031187316653 3.340376377747424,9.182318871990933 c2.5450486687599425,4.851036385202762 5.090097337519883,10.221826668820102 5.7263595047098725,11.607837064592317 c0.6362621671899852,1.386010395772218 3.1813108359499287,5.890544182031923 5.567293962912375,9.875324069877049 c10.33926021683726,16.458873449795078 32.13123944309428,63.9297295049935 33.40376377747424,72.41904317909834 c3.6585074613424178,23.562176728127696 3.4994419195449202,26.334197519672124 -0.6362621671899852,29.279469610688093 c-3.022245294152431,2.2522668931298533 -5.408228421114876,2.425518192601381 -11.45271900941974,1.2127590963006902 c-4.135704086734907,-0.8662564973576368 -8.589539257064807,-2.598769492072907 -10.180194675039766,-3.811528588373596 c-1.431589876177469,-1.386010395772218 -5.249162879317382,-3.811528588373596 -8.43047371526731,-5.544041583088867 c-3.1813108359499287,-1.9057642941867994 -13.679636594584695,-10.914831866706207 -23.541700186029463,-20.4436533376402 c-9.702998049647281,-9.355570171462466 -17.97440622311709,-17.151878647681187 -18.451602848509587,-17.151878647681187 c-0.3181310835949938,0 0,1.9057642941867994 0.795327708987482,4.158031187316653 c3.9766385449374115,11.781088364063844 6.203556130102359,30.145726108045718 4.771966253924891,40.19430147739429 c-2.226917585164949,14.553109155608274 -7.3170149226848356,18.53788904345341 -19.40599609929456,14.553109155608274 zm340.71839053023723,-71.03303278332609 c0,-2.9452720910159615 -1.431589876177469,-8.316062374633304 -3.1813108359499287,-12.127590963006897 c-4.771966253924891,-10.048575369348573 -9.702998049647281,-24.948187123899928 -14.315898761774681,-43.31282486788178 l-4.294769628532404,-16.458873449795078 l-6.9988838390898405,-1.2127590963006902 c-3.817573003139914,-0.8662564973576368 -13.361505510989696,-2.2522668931298533 -21.314782600864522,-3.1185233904874905 c-7.794211548077321,-1.039507796829164 -23.22356910243447,-2.9452720910159615 -34.19909148646172,-4.158031187316653 c-10.975522384027252,-1.386010395772218 -23.859831269624458,-2.598769492072907 -28.472731981751856,-2.598769492072907 l-8.7486047988623,-0.17325129947152856 l9.543932507849782,6.756800679389557 c5.090097337519883,3.6382772889020685 16.38375080514212,13.513601358779113 25.132355604004438,21.829663733412414 l15.588423096154642,15.072863054022859 l-1.2725243343799721,-7.4498058772756695 c-3.9766385449374115,-24.081930626542267 4.6129007121273995,-28.06671051438739 16.70188188873712,-7.623057176747194 c10.975522384027252,18.53788904345341 48.67405579003388,59.77169831767688 54.71854637833878,59.77169831767688 c0.6362621671899852,0 1.1134587925824746,-2.425518192601381 1.1134587925824746,-5.197538984145814 zm64.10341334439102,-0.5197538984145823 c0.9543932507849786,-2.598769492072907 -4.6129007121273995,-25.987694920729062 -7.9532770898748195,-33.610752097476265 c-2.704114210557438,-6.410298080446502 -17.4972095977246,-19.230894241339506 -24.814224520409436,-21.483161134469363 c-7.1579493808873424,-2.2522668931298533 -14.952160928964656,-1.9057642941867994 -16.38375080514212,0.5197538984145823 c-0.6362621671899852,1.2127590963006902 -1.1134587925824746,5.717292882560396 -1.1134587925824746,10.048575369348573 c0.3181310835949938,20.79015593658325 23.859831269624458,46.77785085731232 42.62956520172904,46.77785085731232 c3.9766385449374115,0 7.1579493808873424,-0.8662564973576368 7.635146006279826,-2.2522668931298533 zm-279.79628802179616,-14.379857856136754 c6.3626216718998565,-2.598769492072907 6.203556130102359,-7.103303278332615 -0.795327708987482,-23.73542802759922 c-7.3170149226848356,-17.498381246624238 -14.15683321997718,-30.492228706988776 -16.22468526334463,-30.665480006460307 c-0.795327708987482,0 -3.817573003139914,-2.079015593658326 -6.680752755494846,-4.504533786259706 c-6.521687213697351,-5.3707902836173425 -17.97440622311709,-7.623057176747194 -20.04225826648455,-3.9847798878451233 c-3.022245294152431,5.197538984145814 -1.2725243343799721,13.860103957722169 5.7263595047098725,28.759715712273508 c7.794211548077321,16.11237085085202 12.088981176609725,22.176166332355468 22.110110309851997,30.145726108045718 c6.044490588304862,4.851036385202762 10.816456842229751,6.063795481503449 15.906554179749639,3.9847798878451233 zm-270.4114210557439,-27.720207915444337 c3.340376377747424,-1.386010395772218 3.1813108359499287,-7.4498058772756695 -0.4771966253924913,-16.978627348209663 c-1.7497209597724601,-4.3312824867881785 -3.6585074613424178,-10.568329267763158 -4.294769628532404,-14.033355257193698 c-1.431589876177469,-8.489313674104832 -5.090097337519883,-12.993847460364531 -18.76973393210458,-23.042422829713107 c-19.565061641092054,-14.726360455079806 -28.472731981751856,-13.686852658250647 -25.45048668759942,2.772020791544434 c1.1134587925824746,6.410298080446502 2.3859831269624463,8.489313674104832 6.203556130102359,10.741580567234683 c2.704114210557438,1.386010395772218 5.090097337519883,2.772020791544434 5.567293962912375,3.1185233904874905 c0.3181310835949938,0.3465025989430559 -0.15906554179749777,2.079015593658326 -1.2725243343799721,3.811528588373596 c-1.5906554179749652,2.9452720910159615 -1.2725243343799721,4.504533786259706 1.9087865015699568,10.048575369348573 c4.294769628532404,7.103303278332615 17.97440622311709,22.002915032883948 21.632913684459503,23.38892542865616 c3.340376377747424,1.386010395772218 11.92991563481223,1.386010395772218 14.952160928964656,0.17325129947152856 zm209.96651517269524,-36.556024188492216 c1.1134587925824746,-8.14281107516177 5.408228421114876,-16.11237085085202 8.7486047988623,-16.11237085085202 c2.3859831269624463,0 2.226917585164949,-3.4650259894305426 -0.15906554179749777,-3.4650259894305426 c-3.022245294152431,-0.17325129947152856 -17.815340681319594,-1.386010395772218 -31.33591173410678,-2.772020791544434 l-11.770850093014731,-1.039507796829164 l8.589539257064807,10.741580567234683 c8.589539257064807,10.914831866706207 19.724127182889543,20.79015593658325 23.064503560636975,20.79015593658325 c0.9543932507849786,0 2.226917585164949,-3.6382772889020685 2.8631797523549363,-8.14281107516177 zm-403.07208291485586,-97.54048160246977 c0,-1.9057642941867994 -13.043374427394701,-34.30375729536237 -16.22468526334463,-40.71405537580887 c-1.1134587925824746,-1.9057642941867994 -3.817573003139914,-6.930051978861084 -6.044490588304862,-11.261334465649266 c-2.3859831269624463,-4.3312824867881785 -8.43047371526731,-15.939119551380491 -13.52057105278719,-25.987694920729062 c-18.610668390307072,-37.24902938637833 -33.40376377747424,-58.905441820319226 -44.53835170329899,-65.48899120023725 c-4.771966253924891,-2.772020791544434 -36.585074613424176,-16.63212474926661 -53.28695650216129,-23.042422829713107 c-30.222452941524313,-11.781088364063844 -53.12789096036379,-10.914831866706207 -62.512757926416064,2.425518192601381 c-18.76973393210458,26.853951418086698 -16.70188188873712,57.692682724018525 5.249162879317382,79.69559775690249 c10.498325758634763,10.568329267763158 19.565061641092054,16.11237085085202 50.10564566621136,30.492228706988776 c10.498325758634763,5.024287684674287 20.360389350079533,9.875324069877049 22.110110309851997,10.741580567234683 c8.112342631672316,5.024287684674287 110.39148600746252,44.17908136523942 116.75410767936232,44.69883526365399 c0.9543932507849786,0.17325129947152856 1.9087865015699568,-0.6930051978861097 1.9087865015699568,-1.559261695243745 z" id="svg_2" fill="#919191" fill-opacity="1"/>
<path d="M840.9054095423107,3279.4554474849083 c-7.635146006279826,-4.504533786259706 -10.33926021683726,-8.835816273047884 -10.33926021683726,-16.28562215032354 c0,-4.158031187316653 0.9543932507849786,-8.489313674104832 2.3859831269624463,-9.875324069877049 c6.680752755494846,-7.4498058772756695 24.655158978611944,-8.14281107516177 29.745256316131822,-1.2127590963006902 c3.1813108359499287,4.3312824867881785 3.817573003139914,15.592616952437439 1.2725243343799721,20.963407236054774 c-3.4994419195449202,7.103303278332615 -16.06561972154714,10.741580567234683 -23.064503560636975,6.410298080446502 z" id="svg_3" fill="#919191" fill-opacity="1"/>
<path d="M786.8231253311621,3100.4868551308205 c-10.180194675039766,-14.379857856136754 -36.107877988031674,-26.853951418086698 -63.149020093606076,-30.492228706988776 c-15.588423096154642,-2.079015593658326 -33.085632693879255,-0.8662564973576368 -33.085632693879255,2.2522668931298533 c0,1.039507796829164 2.8631797523549363,5.544041583088867 6.3626216718998565,10.048575369348573 c7.9532770898748195,10.395077968291629 10.498325758634763,16.978627348209663 6.9988838390898405,18.53788904345341 c-1.431589876177469,0.5197538984145823 -4.294769628532404,-1.2127590963006902 -7.476080464482328,-4.677785085731233 c-6.521687213697351,-7.276554577804137 -19.883192724687046,-15.592616952437439 -24.97329006220693,-15.592616952437439 c-2.3859831269624463,0 -8.907670340659797,4.158031187316653 -15.906554179749639,9.702072770405524 c-10.498325758634763,8.489313674104832 -11.92991563481223,9.182318871990933 -12.407112260204718,6.237046780974981 c-0.3181310835949938,-1.9057642941867994 1.431589876177469,-7.4498058772756695 3.6585074613424178,-12.474093561949962 c2.226917585164949,-4.851036385202762 3.6585074613424178,-9.528821470933993 3.1813108359499287,-10.221826668820102 c-1.5906554179749652,-2.9452720910159615 -23.700765727826962,-6.063795481503449 -42.947696285324014,-6.063795481503449 c-17.4972095977246,-0.17325129947152856 -20.04225826648455,0.17325129947152856 -30.540584025119305,4.851036385202762 c-6.3626216718998565,2.772020791544434 -14.793095387167162,8.14281107516177 -19.246930557497066,12.474093561949962 c-4.453835170329898,4.158031187316653 -8.43047371526731,7.623057176747194 -8.907670340659797,7.623057176747194 c-4.931031795722386,0 13.838702136382185,-34.65025989430543 21.473848142662007,-39.84779887845124 c17.656275139522098,-11.781088364063844 24.33702789501694,-14.379857856136754 39.13012328218411,-15.246114353494388 c17.4972095977246,-0.8662564973576368 34.35815702825923,2.598769492072907 46.765269288463934,10.048575369348573 c4.771966253924891,2.772020791544434 10.180194675039766,6.063795481503449 12.248046718407217,7.103303278332615 c3.022245294152431,1.9057642941867994 4.453835170329898,1.7325129947152724 8.112342631672316,-0.6930051978861097 c6.203556130102359,-3.9847798878451233 23.064503560636975,-8.14281107516177 33.40376377747424,-8.14281107516177 c10.180194675039766,0 29.427125232536827,5.544041583088867 40.720778700159066,11.607837064592317 c21.15571705906702,11.607837064592317 43.7430239943115,34.823511193776945 43.7430239943115,45.2185891620686 c0,5.3707902836173425 -2.3859831269624463,4.677785085731233 -7.1579493808873424,-2.2522668931298533 z" id="svg_4" fill="#919191" fill-opacity="1"/>
<path d="M829.134559449296,3077.0979297021645 c-5.7263595047098725,-10.395077968291629 -15.111226470762157,-19.577396840282567 -25.45048668759942,-24.948187123899928 c-9.862063591444771,-5.024287684674287 -11.611784551217236,-5.3707902836173425 -28.31366643995436,-5.197538984145814 c-9.862063591444771,0 -17.97440622311709,-0.3465025989430559 -17.97440622311709,-0.6930051978861097 c0,-0.3465025989430559 1.431589876177469,-2.9452720910159615 3.1813108359499287,-5.544041583088867 c4.453835170329898,-6.930051978861084 16.86094743053462,-11.261334465649266 31.813108359499278,-11.088083166177734 c10.021129133242273,0.17325129947152856 13.52057105278719,1.039507796829164 22.269175851649496,5.717292882560396 c5.7263595047098725,2.9452720910159615 12.407112260204718,7.4498058772756695 14.634029845369671,9.702072770405524 c2.3859831269624463,2.425518192601381 4.931031795722386,4.3312824867881785 5.7263595047098725,4.3312824867881785 c0.6362621671899852,0 3.6585074613424178,-2.598769492072907 6.521687213697351,-5.890544182031923 c3.022245294152431,-3.2917746899590155 8.7486047988623,-7.623057176747194 12.884308885597205,-9.528821470933993 l7.635146006279826,-3.6382772889020685 l9.225801424254794,3.4650259894305426 c7.794211548077321,2.9452720910159615 11.293653467622246,5.544041583088867 20.201323808282044,15.939119551380491 c5.8854250465073665,6.930051978861084 10.65739130043226,12.993847460364531 10.65739130043226,13.513601358779113 c0,2.2522668931298533 -3.9766385449374115,5.197538984145814 -6.839818297292347,5.197538984145814 c-1.7497209597724601,0 -6.203556130102359,-3.6382772889020685 -10.180194675039766,-7.969559775690246 c-12.566177802002217,-13.860103957722169 -22.110110309851997,-15.072863054022859 -33.085632693879255,-3.9847798878451233 c-3.9766385449374115,3.9847798878451233 -7.1579493808873424,8.316062374633304 -7.1579493808873424,9.528821470933993 c0,1.386010395772218 -1.1134587925824746,5.544041583088867 -2.5450486687599425,9.355570171462466 c-3.340376377747424,8.835816273047884 -8.7486047988623,9.528821470933993 -13.202439969192202,1.7325129947152724 z" id="svg_5" fill="#919191" fill-opacity="1"/>
</g></g></svg>